<svg width="19" height="19" viewBox="0 0 19 19" fill="none" xmlns="http://www.w3.org/2000/svg">
<g id="pen">
<path id="Stroke 1 (Stroke)" fill-rule="evenodd" clip-rule="evenodd" d="M12.8785 2.40831C13.3194 1.96743 14.0331 1.96743 14.474 2.40831L17.1716 5.10596C17.6125 5.54684 17.6125 6.26051 17.1716 6.7014L8.17572 15.6973C8.0931 15.7799 7.98592 15.8335 7.87025 15.85L3.7526 16.4383C3.58434 16.4623 3.41458 16.4057 3.2944 16.2855C3.17421 16.1653 3.11763 15.9956 3.14166 15.8273L3.7299 11.7097C3.74642 11.594 3.80002 11.4868 3.88263 11.4042L12.8785 2.40831ZM13.7103 3.17199C13.6912 3.15287 13.6613 3.15287 13.6422 3.17199L4.77359 12.0406L4.31263 15.2673L7.53933 14.8063L16.4079 5.93772C16.427 5.91861 16.427 5.88875 16.4079 5.86963L13.7103 3.17199Z" fill="#9FA6B2"/>
<path id="Stroke 3 (Stroke)" fill-rule="evenodd" clip-rule="evenodd" d="M15.8229 3.75709C16.0338 3.96798 16.0338 4.30988 15.8229 4.52077L8.76412 11.5796C8.55324 11.7905 8.21133 11.7905 8.00045 11.5796C7.78956 11.3687 7.78956 11.0268 8.00045 10.8159L15.0593 3.75709C15.2702 3.54621 15.6121 3.54621 15.8229 3.75709Z" fill="#9FA6B2"/>
<path id="Stroke 5 (Stroke)" fill-rule="evenodd" clip-rule="evenodd" d="M3.88277 11.4042C4.09365 11.1933 4.43556 11.1933 4.64645 11.4042L8.17586 14.9336C8.38674 15.1445 8.38674 15.4864 8.17586 15.6973C7.96498 15.9082 7.62307 15.9082 7.41218 15.6973L3.88277 12.1679C3.67189 11.957 3.67189 11.6151 3.88277 11.4042Z" fill="#9FA6B2"/>
</g>
</svg>
